# xmcd
#
# Track frame offsets:
#	150
#	19683
#	39863
#	77007
#	113665
#	134412
#	153211
#	173082
#	192484
#	211809
#
# Disc length: 3129 seconds
#
# Revision: 0
# Processed by: cddbd v1.5.2PL0 Copyright (c) Steve Scherf et al.
# Submitted via: audiograbber 1.83.01
#
DISCID=740c370a
DTITLE=The Eagles - Dark Desert Highways [Disc 5][Extra Night At Burbank 1994Pt
DTITLE=2youCanNeverLeave]
DYEAR=1994
DGENRE=Country
TTITLE0=Pretty Maids all in the row
TTITLE1=The Girl from yesterday
TTITLE2=New York Minute
TTITLE3=The Last Resort
TTITLE4=Take It Easy
TTITLE5=One of these nights
TTITLE6=In the city
TTITLE7=Heartache Tonight
TTITLE8=Get over it
TTITLE9=Desperado
EXTD=
EXTT0=
EXTT1=
EXTT2=
EXTT3=
EXTT4=
EXTT5=
EXTT6=
EXTT7=
EXTT8=
EXTT9=
PLAYORDER=
